ffmpeg started on 2016-12-07 at 01:07:12
Report written to "Output/x264/results/ffmpeg/sintelmedium12000k.log"
Command line:
Tools/ffmpeg/ffmpeg -benchmark -y -i Input/y4m/sintel.y4m -c:v libx264 -preset medium -b:v 12000k -an Output/x264/encoded/sintelmedium12000k.mkv
ffmpeg version N-82227-gdb23fde Copyright (c) 2000-2016 the FFmpeg developers
  built with gcc 5.4.0 (Ubuntu 5.4.0-6ubuntu1~16.04.2) 20160609
  configuration: --prefix=/home/jaroslav/ffmpeg_build --pkg-config-flags=--static --extra-cflags=-I/home/jaroslav/ffmpeg_build/include --extra-ldflags=-L/home/jaroslav/ffmpeg_build/lib --bindir=/home/jaroslav/bin --enable-gpl --enable-libass --enable-libfdk-aac --enable-libfreetype --enable-libmp3lame --enable-libopus --enable-libtheora --enable-libvorbis --enable-libvpx --enable-libx264 --enable-libx265 --enable-nvenc --enable-libmfx --enable-libxvid --enable-libgsm --enable-libopencore-amrnb --enable-version3 --enable-nonfree
  libavutil      55. 35.100 / 55. 35.100
  libavcodec     57. 66.101 / 57. 66.101
  libavformat    57. 57.100 / 57. 57.100
  libavdevice    57.  2.100 / 57.  2.100
  libavfilter     6. 66.100 /  6. 66.100
  libswscale      4.  3.100 /  4.  3.100
  libswresample   2.  4.100 /  2.  4.100
  libpostproc    54.  2.100 / 54.  2.100
Input #0, yuv4mpegpipe, from 'Input/y4m/sintel.y4m':
  Duration: 00:00:20.83, start: 0.000000, bitrate: 2057307 kb/s
    Stream #0:0: Video: rawvideo (I420 / 0x30323449), yuv420p(progressive), 4096x1744, SAR 1:1 DAR 256:109, 24 fps, 24 tbr, 24 tbn, 24 tbc
[libx264 @ 0x36c81c0] using SAR=1/1
[libx264 @ 0x36c81c0] using cpu capabilities: MMX2 SSE2Fast SSSE3 SSE4.2 AVX FMA3 AVX2 LZCNT BMI2
[libx264 @ 0x36c81c0] profile High, level 5.1
[libx264 @ 0x36c81c0] 264 - core 148 - H.264/MPEG-4 AVC codec - Copyleft 2003-2016 - http://www.videolan.org/x264.html - options: cabac=1 ref=3 deblock=1:0:0 analyse=0x3:0x113 me=hex subme=7 psy=1 psy_rd=1.00:0.00 mixed_ref=1 me_range=16 chroma_me=1 trellis=1 8x8dct=1 cqm=0 deadzone=21,11 fast_pskip=1 chroma_qp_offset=-2 threads=6 lookahead_threads=1 sliced_threads=0 nr=0 decimate=1 interlaced=0 bluray_compat=0 constrained_intra=0 bframes=3 b_pyramid=2 b_adapt=1 b_bias=0 direct=1 weightb=1 open_gop=0 weightp=2 keyint=250 keyint_min=24 scenecut=40 intra_refresh=0 rc_lookahead=40 rc=abr mbtree=1 bitrate=12000 ratetol=1.0 qcomp=0.60 qpmin=0 qpmax=69 qpstep=4 ip_ratio=1.40 aq=1:1.00
Output #0, matroska, to 'Output/x264/encoded/sintelmedium12000k.mkv':
  Metadata:
    encoder         : Lavf57.57.100
    Stream #0:0: Video: h264 (libx264) (H264 / 0x34363248), yuv420p, 4096x1744 [SAR 1:1 DAR 256:109], q=-1--1, 12000 kb/s, 24 fps, 1k tbn, 24 tbc
    Metadata:
      encoder         : Lavc57.66.101 libx264
    Side data:
      cpb: bitrate max/min/avg: 0/0/12000000 buffer size: 0 vbv_delay: -1
Stream mapping:
  Stream #0:0 -> #0:0 (rawvideo (native) -> h264 (libx264))
Press [q] to stop, [?] for help
frame=    9 fps=0.0 q=0.0 size=       0kB time=00:00:00.00 bitrate=N/A speed=   0x    frame=   18 fps= 17 q=0.0 size=       0kB time=00:00:00.00 bitrate=N/A speed=   0x    frame=   27 fps= 17 q=0.0 size=       0kB time=00:00:00.00 bitrate=N/A speed=   0x    frame=   36 fps= 17 q=0.0 size=       0kB time=00:00:00.00 bitrate=N/A speed=   0x    frame=   45 fps= 17 q=0.0 size=       0kB time=00:00:00.00 bitrate=N/A speed=   0x    frame=   47 fps=9.5 q=0.0 size=       0kB time=00:00:00.00 bitrate=N/A speed=   0x    frame=   48 fps=5.9 q=0.0 size=       0kB time=00:00:00.00 bitrate=N/A speed=   0x    frame=   49 fps=4.3 q=0.0 size=       0kB time=00:00:00.00 bitrate=N/A speed=   0x    frame=   50 fps=4.1 q=0.0 size=       0kB time=00:00:00.00 bitrate=N/A speed=   0x    frame=   55 fps=4.2 q=27.0 size=       1kB time=00:00:00.08 bitrate=  69.9kbits/s speed=0.00636x    frame=   58 fps=4.2 q=41.0 size=       1kB time=00:00:00.20 bitrate=  28.1kbits/s speed=0.0152x    frame=   61 fps=4.2 q=41.0 size=       1kB time=00:00:00.33 bitrate=  17.6kbits/s speed=0.0231x    frame=   67 fps=4.4 q=40.0 size=       1kB time=00:00:00.58 bitrate=  10.1kbits/s speed=0.0388x    frame=   72 fps=4.5 q=40.0 size=       1kB time=00:00:00.79 bitrate=   7.4kbits/s speed=0.0501x    frame=   77 fps=4.7 q=39.0 size=       1kB time=00:00:01.00 bitrate=   5.9kbits/s speed=0.061x    frame=   82 fps=4.8 q=39.0 size=       1kB time=00:00:01.20 bitrate=   4.9kbits/s speed=0.0712x    frame=   85 fps=4.9 q=39.0 size=       1kB time=00:00:01.33 bitrate=   4.4kbits/s speed=0.0763x    frame=   90 fps=5.0 q=38.0 size=       1kB time=00:00:01.54 bitrate=   3.8kbits/s speed=0.0853x    frame=   95 fps=5.1 q=38.0 size=       1kB time=00:00:01.75 bitrate=   3.4kbits/s speed=0.0936x    frame=  101 fps=5.3 q=37.0 size=       1kB time=00:00:02.00 bitrate=   2.9kbits/s speed=0.104x    frame=  103 fps=5.2 q=37.0 size=       1kB time=00:00:02.08 bitrate=   2.8kbits/s speed=0.105x    frame=  106 fps=5.2 q=37.0 size=       1kB time=00:00:02.20 bitrate=   2.7kbits/s speed=0.109x    frame=  110 fps=5.3 q=37.0 size=       1kB time=00:00:02.37 bitrate=   2.5kbits/s speed=0.113x    frame=  113 fps=5.3 q=37.0 size=       1kB time=00:00:02.50 bitrate=   2.3kbits/s speed=0.117x    frame=  117 fps=5.3 q=37.0 size=    5141kB time=00:00:02.66 bitrate=15785.9kbits/s speed=0.121x    frame=  122 fps=5.4 q=36.0 size=    5141kB time=00:00:02.87 bitrate=14644.2kbits/s speed=0.126x    frame=  125 fps=5.4 q=36.0 size=    5141kB time=00:00:03.00 bitrate=14034.3kbits/s speed=0.129x    frame=  130 fps=5.4 q=36.0 size=    5141kB time=00:00:03.20 bitrate=13124.6kbits/s speed=0.134x    frame=  132 fps=5.4 q=36.0 size=    5141kB time=00:00:03.29 bitrate=12789.8kbits/s speed=0.134x    frame=  137 fps=5.5 q=35.0 size=    5141kB time=00:00:03.50 bitrate=12029.9kbits/s speed=0.14x    frame=  140 fps=5.4 q=35.0 size=    5141kB time=00:00:03.62 bitrate=11615.2kbits/s speed=0.141x    frame=  145 fps=5.5 q=35.0 size=    5141kB time=00:00:03.83 bitrate=10985.1kbits/s speed=0.146x    frame=  151 fps=5.6 q=35.0 size=    6375kB time=00:00:04.08 bitrate=12786.7kbits/s speed=0.151x    frame=  155 fps=5.6 q=35.0 size=    6375kB time=00:00:04.25 bitrate=12284.3kbits/s speed=0.154x    frame=  161 fps=5.7 q=32.0 size=    6375kB time=00:00:04.50 bitrate=11602.0kbits/s speed=0.158x    frame=  167 fps=5.8 q=34.0 size=    6375kB time=00:00:04.75 bitrate=10991.5kbits/s speed=0.164x    frame=  171 fps=5.8 q=34.0 size=    6375kB time=00:00:04.91 bitrate=10618.3kbits/s speed=0.166x    frame=  175 fps=5.8 q=34.0 size=    6375kB time=00:00:05.08 bitrate=10271.6kbits/s speed=0.168x    frame=  178 fps=5.8 q=34.0 size=    6375kB time=00:00:05.20 bitrate=10025.1kbits/s speed=0.17x    frame=  183 fps=5.8 q=34.0 size=    6375kB time=00:00:05.41 bitrate=9638.4kbits/s speed=0.173x    frame=  187 fps=5.9 q=34.0 size=    6375kB time=00:00:05.58 bitrate=9351.8kbits/s speed=0.175x    frame=  192 fps=5.9 q=34.0 size=    6375kB time=00:00:05.79 bitrate=9014.4kbits/s speed=0.178x    frame=  195 fps=5.9 q=34.0 size=    6375kB time=00:00:05.91 bitrate=8824.0kbits/s speed=0.179x    frame=  201 fps=6.0 q=34.0 size=    6375kB time=00:00:06.16 bitrate=8466.4kbits/s speed=0.183x    frame=  209 fps=6.1 q=34.0 size=    9450kB time=00:00:06.50 bitrate=11907.5kbits/s speed=0.189x    frame=  212 fps=6.1 q=33.0 size=    9450kB time=00:00:06.62 bitrate=11682.8kbits/s speed=0.19x    frame=  217 fps=6.1 q=33.0 size=    9450kB time=00:00:06.83 bitrate=11327.3kbits/s speed=0.192x    frame=  221 fps=6.1 q=33.0 size=    9450kB time=00:00:07.00 bitrate=11057.1kbits/s speed=0.193x    frame=  226 fps=6.1 q=33.0 size=    9450kB time=00:00:07.20 bitrate=10738.0kbits/s speed=0.196x    frame=  230 fps=6.2 q=33.0 size=    9450kB time=00:00:07.37 bitrate=10494.9kbits/s speed=0.197x    frame=  233 fps=6.1 q=33.0 size=    9450kB time=00:00:07.50 bitrate=10320.0kbits/s speed=0.198x    frame=  240 fps=6.2 q=33.0 size=   10789kB time=00:00:07.79 bitrate=11341.3kbits/s speed=0.201x    frame=  246 fps=6.3 q=33.0 size=   10789kB time=00:00:08.04 bitrate=10988.8kbits/s speed=0.205x    frame=  249 fps=6.3 q=33.0 size=   10789kB time=00:00:08.16 bitrate=10820.6kbits/s speed=0.205x    frame=  253 fps=6.3 q=33.0 size=   10789kB time=00:00:08.33 bitrate=10605.1kbits/s speed=0.206x    frame=  257 fps=6.3 q=33.0 size=   10789kB time=00:00:08.50 bitrate=10396.7kbits/s speed=0.208x    frame=  262 fps=6.3 q=33.0 size=   10789kB time=00:00:08.70 bitrate=10148.4kbits/s speed=0.21x    frame=  268 fps=6.3 q=33.0 size=   10789kB time=00:00:08.95 bitrate=9865.2kbits/s speed=0.212x    frame=  271 fps=6.3 q=33.0 size=   10789kB time=00:00:09.08 bitrate=9729.5kbits/s speed=0.212x    frame=  279 fps=6.4 q=32.0 size=   10789kB time=00:00:09.41 bitrate=9384.4kbits/s speed=0.216x    frame=  284 fps=6.4 q=32.0 size=   10789kB time=00:00:09.62 bitrate=9181.7kbits/s speed=0.218x    frame=  289 fps=6.5 q=32.0 size=   10789kB time=00:00:09.83 bitrate=8987.5kbits/s speed=0.219x    frame=  294 fps=6.5 q=32.0 size=   10789kB time=00:00:10.04 bitrate=8800.4kbits/s speed=0.221x    frame=  299 fps=6.5 q=32.0 size=   10789kB time=00:00:10.25 bitrate=8621.9kbits/s speed=0.223x    frame=  305 fps=6.5 q=32.0 size=   10789kB time=00:00:10.50 bitrate=8416.6kbits/s speed=0.225x    frame=  308 fps=6.5 q=32.0 size=   10789kB time=00:00:10.62 bitrate=8317.6kbits/s speed=0.223x    frame=  314 fps=6.5 q=32.0 size=   10789kB time=00:00:10.87 bitrate=8126.4kbits/s speed=0.225x    frame=  321 fps=6.6 q=31.0 size=   14758kB time=00:00:11.16 bitrate=10825.4kbits/s speed=0.229x    frame=  328 fps=6.7 q=31.0 size=   14758kB time=00:00:11.45 bitrate=10550.5kbits/s speed=0.232x    frame=  331 fps=6.6 q=31.0 size=   14758kB time=00:00:11.58 bitrate=10436.7kbits/s speed=0.232x    frame=  338 fps=6.7 q=31.0 size=   14758kB time=00:00:11.87 bitrate=10180.1kbits/s speed=0.234x    frame=  346 fps=6.7 q=31.0 size=   14758kB time=00:00:12.20 bitrate=9902.4kbits/s speed=0.238x    frame=  354 fps=6.8 q=31.0 size=   14758kB time=00:00:12.54 bitrate=9638.7kbits/s speed=0.241x    frame=  362 fps=6.9 q=30.0 size=   14758kB time=00:00:12.87 bitrate=9389.4kbits/s speed=0.244x    frame=  370 fps=6.9 q=30.0 size=   14758kB time=00:00:13.20 bitrate=9152.7kbits/s speed=0.247x    frame=  378 fps=7.0 q=30.0 size=   14758kB time=00:00:13.54 bitrate=8927.0kbits/s speed=0.25x    frame=  383 fps=7.0 q=29.0 size=   14758kB time=00:00:13.75 bitrate=8792.0kbits/s speed=0.252x    frame=  390 fps=7.0 q=29.0 size=   14758kB time=00:00:14.04 bitrate=8609.2kbits/s speed=0.254x    frame=  398 fps=7.1 q=29.0 size=   14758kB time=00:00:14.37 bitrate=8409.7kbits/s speed=0.257x    frame=  404 fps=7.2 q=28.0 size=   14758kB time=00:00:14.62 bitrate=8266.0kbits/s speed=0.259x    frame=  408 fps=7.2 q=26.0 size=   14758kB time=00:00:14.79 bitrate=8172.7kbits/s speed=0.259x    frame=  416 fps=7.2 q=28.0 size=   18617kB time=00:00:15.12 bitrate=10082.4kbits/s speed=0.262x    frame=  419 fps=7.2 q=28.0 size=   18617kB time=00:00:15.25 bitrate=9999.8kbits/s speed=0.262x    frame=  423 fps=7.2 q=28.0 size=   18617kB time=00:00:15.41 bitrate=9891.5kbits/s speed=0.263x    frame=  428 fps=7.2 q=28.0 size=   18617kB time=00:00:15.62 bitrate=9759.8kbits/s speed=0.264x    frame=  432 fps=7.2 q=28.0 size=   18617kB time=00:00:15.79 bitrate=9656.6kbits/s speed=0.264x    frame=  438 fps=7.2 q=28.0 size=   18617kB time=00:00:16.04 bitrate=9506.1kbits/s speed=0.265x    frame=  445 fps=7.2 q=28.0 size=   18617kB time=00:00:16.33 bitrate=9336.8kbits/s speed=0.266x    frame=  451 fps=7.2 q=28.0 size=   18617kB time=00:00:16.58 bitrate=9196.0kbits/s speed=0.266x    frame=  457 fps=7.2 q=28.0 size=   18617kB time=00:00:16.83 bitrate=9059.4kbits/s speed=0.267x    frame=  463 fps=7.3 q=28.0 size=   18617kB time=00:00:17.08 bitrate=8926.9kbits/s speed=0.268x    frame=  470 fps=7.3 q=28.0 size=   21982kB time=00:00:17.37 bitrate=10363.6kbits/s speed=0.271x    frame=  474 fps=7.3 q=28.0 size=   21982kB time=00:00:17.54 bitrate=10264.9kbits/s speed=0.27x    frame=  479 fps=7.3 q=28.0 size=   21982kB time=00:00:17.75 bitrate=10144.7kbits/s speed=0.271x    frame=  483 fps=7.3 q=28.0 size=   21982kB time=00:00:17.91 bitrate=10050.1kbits/s speed=0.272x    frame=  490 fps=7.3 q=28.0 size=   21982kB time=00:00:18.20 bitrate=9889.5kbits/s speed=0.273x    frame=  498 fps=7.4 q=28.0 size=   21982kB time=00:00:18.54 bitrate=9711.4kbits/s speed=0.275x    frame=  500 fps=6.9 q=-1.0 Lsize=   27094kB time=00:00:20.70 bitrate=10717.8kbits/s speed=0.288x    
video:27089kB audio:0kB subtitle:0kB other streams:0kB global headers:0kB muxing overhead: 0.018111%
bench: utime=230.596s
bench: maxrss=1574928kB
[libx264 @ 0x36c81c0] frame I:8     Avg QP:23.22  size:187353
[libx264 @ 0x36c81c0] frame P:269   Avg QP:28.47  size: 66844
[libx264 @ 0x36c81c0] frame B:223   Avg QP:26.13  size: 37035
[libx264 @ 0x36c81c0] consecutive B-frames: 37.0%  8.4%  6.6% 48.0%
[libx264 @ 0x36c81c0] mb I  I16..4: 21.2% 72.6%  6.3%
[libx264 @ 0x36c81c0] mb P  I16..4: 18.1% 23.4%  0.6%  P16..4: 28.0%  3.7%  1.2%  0.0%  0.0%    skip:25.2%
[libx264 @ 0x36c81c0] mb B  I16..4:  1.4%  2.8%  0.3%  B16..8: 32.7%  2.8%  0.5%  direct: 1.5%  skip:58.1%  L0:43.3% L1:52.9% BI: 3.8%
[libx264 @ 0x36c81c0] final ratefactor: 25.33
[libx264 @ 0x36c81c0] 8x8 transform intra:57.2% inter:89.9%
[libx264 @ 0x36c81c0] coded y,uvDC,uvAC intra: 20.4% 28.9% 3.2% inter: 8.9% 9.2% 0.1%
[libx264 @ 0x36c81c0] i16 v,h,dc,p: 26% 30%  8% 36%
[libx264 @ 0x36c81c0] i8 v,h,dc,ddl,ddr,vr,hd,vl,hu: 24% 19% 33%  4%  4%  4%  5%  3%  4%
[libx264 @ 0x36c81c0] i4 v,h,dc,ddl,ddr,vr,hd,vl,hu: 22% 23% 10%  6% 10%  8% 11%  5%  5%
[libx264 @ 0x36c81c0] i8c dc,h,v,p: 69% 15% 14%  2%
[libx264 @ 0x36c81c0] Weighted P-Frames: Y:1.1% UV:0.7%
[libx264 @ 0x36c81c0] ref P L0: 69.0% 18.7%  8.9%  3.4%  0.0%
[libx264 @ 0x36c81c0] ref B L0: 92.7%  5.9%  1.3%
[libx264 @ 0x36c81c0] ref B L1: 97.8%  2.2%
[libx264 @ 0x36c81c0] kb/s:10651.67
